<?xml version="1.0" encoding="utf-8"?>
<!-- Generator: Adobe Illustrator 27.4.1, SVG Export Plug-In . SVG Version: 6.00 Build 0)  -->
<svg version="1.1" id="Ebene_1" xmlns="http://www.w3.org/2000/svg" xmlns:xlink="http://www.w3.org/1999/xlink" x="0px" y="0px"
	 viewBox="0 0 1024 1024" style="enable-background:new 0 0 1024 1024;" xml:space="preserve">
<style type="text/css">
	.st0{fill:#2C58B6;}
	.st1{fill:#39B54A;}
	.st2{fill:#ED1C24;}
	.st3{fill:none;stroke:#2C58B6;stroke-width:2.6;stroke-miterlimit:10;}
	.st4{fill:none;stroke:#ED1C24;stroke-width:60.8469;stroke-miterlimit:10;}
	.st5{fill:none;stroke:#FFFFFF;stroke-width:4;stroke-miterlimit:10;}
</style>
<path class="st1" d="M793.8,618.2l-197.6-183l64.6-69.8l128.5,118.9l229.1-242.8c-7.2-25-30.1-43.5-57.5-43.5H605.3
	c-33.2,0-60.1,26.9-60.1,60.1v355.6c0,33.2,26.9,60.1,60.1,60.1h355.6c33.2,0,60.1-26.9,60.1-60.1V377.4L793.8,618.2z"/>
<path class="st0" d="M499.8,674.7L372.4,507.8c9.6-4.1,18.8-8.6,27.5-13.9c14-8.6,26.1-19,36.4-31.2c10.2-12.2,18.3-26.4,24.1-42.5
	c5.8-16.2,8.7-34.6,8.7-55.3v-0.7c0-32.8-5.4-59.8-16.3-81c-10.9-21.2-26.3-38-46.1-50.5c-19.8-12.4-43.5-21.1-71-26
	c-27.5-5-57.7-7.4-90.7-7.4H5v475.4h163.3V530.1h38.1l107.4,144.6H499.8z M168.3,323.5h73.4c9.7,0,18.2,0.8,25.4,2.3
	s13.2,3.9,18,7.3c4.7,3.3,8.3,7.6,10.7,12.8c2.4,5.2,3.6,11.3,3.6,18.4v0.7c0,7.3-1.2,13.6-3.6,18.8c-2.4,5.2-5.9,9.4-10.7,12.8
	c-4.8,3.3-10.7,5.8-18,7.3c-7.2,1.5-15.7,2.3-25.4,2.3h-73.4V323.5z"/>
<g>
	<path class="st2" d="M1021,827.7c-41.8,0-63.8-16.3-81.5-29.3c-14.3-10.5-23.7-17.5-45.4-17.5c-21.7,0-31.2,6.9-45.4,17.5
		c-17.7,13.1-39.8,29.3-81.6,29.3s-63.8-16.3-81.5-29.3c-14.3-10.5-23.7-17.5-45.4-17.5s-31.2,6.9-45.4,17.5
		c-17.7,13.1-39.8,29.3-81.6,29.3c-41.8,0-63.8-16.3-81.6-29.3c-14.3-10.5-23.7-17.5-45.4-17.5c-21.7,0-31.2,6.9-45.4,17.5
		c-17.7,13.1-39.8,29.3-81.6,29.3c-41.8,0-63.8-16.3-81.6-29.3c-14.3-10.5-23.7-17.5-45.5-17.5c-21.8,0-31.2,6.9-45.5,17.5
		C68.8,811.4,46.8,827.7,5,827.7v-60.8c21.8,0,31.2-6.9,45.5-17.5C68.2,736.3,90.3,720,132,720s63.8,16.3,81.6,29.3
		c14.3,10.5,23.7,17.5,45.5,17.5c21.7,0,31.2-6.9,45.4-17.5c17.7-13.1,39.8-29.3,81.6-29.3s63.8,16.3,81.6,29.3
		c14.3,10.5,23.7,17.5,45.4,17.5s31.2-6.9,45.4-17.5c17.7-13.1,39.8-29.3,81.6-29.3c41.8,0,63.8,16.3,81.6,29.3
		c14.3,10.5,23.7,17.5,45.4,17.5c21.7,0,31.2-6.9,45.4-17.5c17.7-13.1,39.8-29.3,81.6-29.3c41.7,0,63.8,16.3,81.5,29.3
		c14.3,10.5,23.7,17.5,45.4,17.5V827.7z"/>
</g>
</svg>
